<svg xmlns="http://www.w3.org/2000/svg" version="1.1" xmlns:xlink="http://www.w3.org/1999/xlink" width="512" height="512" x="0" y="0" viewBox="0 0 64 64" style="enable-background:new 0 0 512 512" xml:space="preserve" class=""><g><path d="M15.357 46.031V29.535l10.747 13.671a7.498 7.498 0 0 0 5.173 2.824h1.445a7.494 7.494 0 0 0 5.174-2.824l10.746-13.671V46.03h15V7.857a7.5 7.5 0 0 0-13.397-4.635L32 26.436 13.754 3.223A7.5 7.5 0 0 0 .357 7.857V46.03h15zM.357 51.938v4.205c0 4.143 3.358 7.5 7.5 7.5s7.5-3.357 7.5-7.5v-4.205zM48.643 51.938v4.205c0 4.143 3.357 7.5 7.5 7.5s7.5-3.357 7.5-7.5v-4.205z" fill="#000000" opacity="1" data-original="#000000" class=""></path></g></svg>